<?xml version="1.0" ?><!DOCTYPE svg  PUBLIC '-//W3C//DTD SVG 1.1//EN'  'http://www.w3.org/Graphics/SVG/1.1/DTD/svg11.dtd'><svg enable-background="new 0 0 512 512" height="512px" id="Layer_1" version="1.1" viewBox="0 0 512 512" width="512px" xml:space="preserve" xmlns="http://www.w3.org/2000/svg" xmlns:xlink="http://www.w3.org/1999/xlink"><g><polygon clip-rule="evenodd" fill="#4C64A2" fill-rule="evenodd" points="0,0 435.207,0 512,76.793 512,512 76.793,512 0,435.203     "/><polygon clip-rule="evenodd" fill="#7288BE" fill-rule="evenodd" points="435.207,0 512,76.793 435.207,76.793  "/><polygon clip-rule="evenodd" fill="#2B437F" fill-rule="evenodd" points="435.207,76.793 512,153.584 512,76.793  "/><polygon clip-rule="evenodd" fill="#7288BE" fill-rule="evenodd" points="76.793,512 0,435.203 76.793,435.203  "/><polygon clip-rule="evenodd" fill="#2B437F" fill-rule="evenodd" points="153.588,512 76.793,435.203 76.793,512  "/><path clip-rule="evenodd" d="M282.68,83.291c-35.975,4.84-63.791,35.676-63.791,72.865v53.512   h-53.512v62.277h53.512v157.371h63.791V271.945h53.363l7.406-62.277c-20.254,0-40.512,0-60.77,0v-44.293   c0-13.453,10.887-24.34,24.188-24.34h39.758V84.803l-34.766-1.662C302.48,82.691,292.051,82.084,282.68,83.291L282.68,83.291z" fill="#FFFFFF" fill-rule="evenodd"/><path clip-rule="evenodd" d="M218.889,325.305v-53.359h-53.512L218.889,325.305z M405.43,512   H512V250.18L346.625,84.803v56.232h-39.758c-13.301,0-24.188,10.887-24.188,24.34v44.293h60.77l-7.406,62.277H282.68v117.156   v40.215h-63.791L301.43,512H405.43z" fill="#2B437F" fill-rule="evenodd"/></g></svg>