<?xml version="1.0" ?><!DOCTYPE svg  PUBLIC '-//W3C//DTD SVG 1.1//EN'  'http://www.w3.org/Graphics/SVG/1.1/DTD/svg11.dtd'><svg enable-background="new 0 0 512 512" height="512px" id="Layer_1" version="1.1" viewBox="0 0 512 512" width="512px" xml:space="preserve" xmlns="http://www.w3.org/2000/svg" xmlns:xlink="http://www.w3.org/1999/xlink"><g><polygon clip-rule="evenodd" fill="#1D1D1D" fill-rule="evenodd" points="0,0 435.199,0 512,76.801 512,512 76.799,512 0,435.199     "/><polygon clip-rule="evenodd" fill="#424242" fill-rule="evenodd" points="435.199,0 512,76.801 435.199,76.801  "/><polygon clip-rule="evenodd" fill="#010101" fill-rule="evenodd" points="435.199,76.801 512,153.602 512,76.801  "/><polygon clip-rule="evenodd" fill="#424242" fill-rule="evenodd" points="76.799,512 0,435.199 76.799,435.199  "/><polygon clip-rule="evenodd" fill="#010101" fill-rule="evenodd" points="153.598,512 76.799,435.199 76.799,512  "/><path clip-rule="evenodd" d="M231.809,358.805l-79.621,57.852L247.533,512h137.475H512V339.652   v-47.367l-79.426-79.422l-27.41,19.959l-79.82,57.85l41.117,125.984l-107.037-78.012L231.809,358.805z M259.424,87.084   l40.717,126.184l85.27-0.203L259.424,87.084z M86.072,212.863l99.98,100.18l7.461-22.371L86.072,212.863z" fill="#010101" fill-rule="evenodd"/><polygon clip-rule="evenodd" fill="#E02A2B" fill-rule="evenodd" points="259.424,87.084 300.141,213.268 432.574,212.863    325.344,290.672 366.461,416.656 259.424,338.645 152.188,416.656 193.514,290.672 86.072,212.863 218.508,213.268  "/></g></svg>