<?xml version="1.0" ?><!DOCTYPE svg  PUBLIC '-//W3C//DTD SVG 1.1//EN'  'http://www.w3.org/Graphics/SVG/1.1/DTD/svg11.dtd'><svg enable-background="new 0 0 512 512" height="512px" id="Layer_1" version="1.1" viewBox="0 0 512 512" width="512px" xml:space="preserve" xmlns="http://www.w3.org/2000/svg" xmlns:xlink="http://www.w3.org/1999/xlink"><g><polygon clip-rule="evenodd" fill="#EF4123" fill-rule="evenodd" points="0,0 435.207,0 512,76.793 512,512 76.793,512 0,435.211     "/><polygon clip-rule="evenodd" fill="#F2683E" fill-rule="evenodd" points="435.207,0 512,76.793 435.207,76.793  "/><polygon clip-rule="evenodd" fill="#BA3326" fill-rule="evenodd" points="435.207,76.793 512,153.584 512,76.793  "/><polygon clip-rule="evenodd" fill="#F2683E" fill-rule="evenodd" points="76.793,512 0,435.211 76.793,435.211  "/><polygon clip-rule="evenodd" fill="#BA3326" fill-rule="evenodd" points="153.588,512 76.793,435.211 76.793,512  "/><path clip-rule="evenodd" d="M265.145,348.281V170.363c10.582-4.383,22.223-6.803,34.316-6.803   c47.613,0,86.465,37.34,89.184,84.199c4.992-1.66,10.281-2.42,15.727-2.42c28.563,0,51.547,22.98,51.547,51.547   c0,28.422-22.984,51.395-51.547,51.395C357.961,348.281,311.555,348.281,265.145,348.281L265.145,348.281z M84.199,245.34   c2.875,0,5.594,0,8.467,0c2.57,35.527,2.719,65.91,0,101.438c-2.873,0-5.592,0-8.467,0C81.48,311.398,81.48,280.719,84.199,245.34   L84.199,245.34z M240.809,182.455h8.617c3.023,65.455,3.023,100.377,0,165.826h-8.617   C238.236,291.898,238.236,238.838,240.809,182.455L240.809,182.455z M214.656,209.967c2.871,0,5.744,0,8.615,0   c2.572,47.318,2.572,91.006,0,138.314h-8.615C211.783,293.715,211.783,264.535,214.656,209.967L214.656,209.967z M188.656,201.506   c2.871,0,5.744,0,8.615,0c2.42,50.189,2.572,96.592,0,146.775h-8.615C185.633,290.387,185.633,259.551,188.656,201.506   L188.656,201.506z M162.504,204.227h8.615c2.873,56.988,2.873,87.223,0,144.055c-2.869,0-5.742,0-8.615,0   C159.934,299.004,159.934,253.504,162.504,204.227L162.504,204.227z M136.352,220.248h8.619c2.566,44.592,2.566,84.502,0,128.033   h-8.619C133.783,304.293,133.783,264.234,136.352,220.248L136.352,220.248z M110.201,247.609c2.873,0,5.744,0,8.617,0   c2.719,34.922,2.566,65.91,0,100.672c-2.873,0-5.744,0-8.617,0C107.33,308.527,107.33,287.367,110.201,247.609L110.201,247.609z    M58.049,259.551h8.617c2.871,29.328,2.871,44.898,0,74.227c-2.873,0-5.746,0-8.617,0C55.326,307.32,55.326,286.004,58.049,259.551   L58.049,259.551z" fill="#FFFFFF" fill-rule="evenodd"/><path clip-rule="evenodd" d="M388.645,247.76c4.992-1.66,10.281-2.42,15.727-2.42   c5.742,0,11.336,0.91,16.32,2.57l-56.23-56.23C378.52,206.496,387.441,226.143,388.645,247.76L388.645,247.76z M236.273,512h82.688   h40.363h23.883h53.508h42.027h29.027H512v-13.457v-53.512V339.066v-7.559l-71.047-71.051c5.59,5.594,9.824,12.395,12.395,20.105   c1.66,5.141,2.57,10.582,2.57,16.324c0,24.945-17.84,45.805-41.574,50.492c-0.305,0.148-0.602,0.148-1.059,0.148   c-2.871,0.605-5.742,0.754-8.914,0.754h-42.629h-17.691h-28.867h-42.027h-8.012v-7.855v-42.027v-29.016V251.84v-13.301V198.18   l-15.719-15.725c0.906,21.016,1.66,38.852,1.965,55.479c0,0.455,0,0.904,0,1.211c0.152,5.744,0.152,11.18,0.301,16.781   c0,9.52,0,19.047-0.148,28.715c-0.152,12.852-0.607,26.152-1.211,40.969c-0.301,7.258-0.605,14.816-0.906,22.672h-8.617   c-0.453-11.18-0.908-22.367-1.209-33.402c-0.453-14.359-0.605-28.57-0.605-42.781c-0.15-9.523,0-19.197,0-28.873   c0-0.451,0.152-1.057,0.152-1.66c0-5.141,0.148-10.436,0.148-15.572l-16.023-16.025c0.307,6.199,0.607,12.396,0.908,18.445   c0.453,9.977,0.756,19.953,0.906,29.777c0.15,14.057,0.15,28.119,0,42.178c-0.303,15.719-0.906,31.594-1.814,47.914h-3.627h-4.686   h-0.303c0-1.652-0.15-3.469-0.15-5.133c-1.211-21.168-1.813-38.551-1.965-55.324c-0.154-10.137,0-20.109,0.152-30.539l0,0   c0.148-3.631,0.301-7.26,0.453-11.035c0.148-8.621,0.602-17.838,1.055-27.818l-16.93-16.926   c0.455,10.121,0.908,20.252,1.211,30.082c0.453,14.355,0.604,28.568,0.604,42.779c0,17.379-0.303,34.762-0.906,52.453   c-0.301,7.105-0.607,14.355-0.908,21.461h-1.512h-7.104c0-0.754,0-1.652-0.15-2.414c0-1.664-0.152-3.324-0.152-4.984   c-0.453-8.922-0.906-17.086-1.207-24.949c-0.305-11.035-0.607-21.16-0.607-31.141c-0.152-7.711-0.152-15.262,0-22.973   c0.154-12.852,0.607-26.002,1.209-40.969l-16.629-16.625c0.76,16.48,1.363,30.682,1.816,43.988c0.453,18.441,0.453,35.066,0,53.516   c-0.152,7.25-0.453,14.961-0.756,22.977c-0.301,7.402-0.607,15.266-1.061,23.574h-8.615c0,0,0-0.148,0-0.301   c-0.604-11.641-1.057-22.977-1.357-34.313c-0.305-8.164-0.459-16.324-0.459-24.336c-0.148-4.387-0.148-8.613-0.148-13   c0-13.301,0.303-26.453,0.607-39.908l-16.176-16.176c1.059,19.051,1.813,37.342,1.965,55.33c0,8.004,0,15.871-0.152,23.73   c-0.152,13-0.604,25.848-1.211,39.152c-0.301,3.32-0.453,6.5-0.602,9.82h-8.316h-0.303c-0.301-6.648-0.754-13.301-0.904-19.949   c-0.607-14.059-0.908-27.664-1.061-41.27c0-2.27,0-4.684,0-6.949c0.152-5.598,0.152-11.188,0.301-16.781l-15.869-15.723   c0.604,8.611,1.207,16.926,1.512,25.242c0.453,13.762,0.604,27.063,0.301,40.668c-0.301,11.336-0.906,22.82-1.813,34.762h-8.617   c0-0.301,0-0.754,0-1.203c-1.361-17.992-2.115-32.199-2.115-46.105c0-1.969,0-3.934,0-5.895c0-10.438,0.453-21.016,1.209-33.258   l-16.629-16.48c1.057,14.664,1.814,28.57,1.965,42.176c0.301,19.352-0.301,38.398-1.965,59.262h-8.467   c-1.965-24.945-2.418-47.617-1.66-71.352l-15.873-15.875c2.871,29.328,2.871,44.898,0,74.227h-8.617l13.906,13.898l12.094,11.949   l13.906,13.902l11.943,12.098l14.965,14.813l10.131,10.281L236.273,512z" fill="#BA3326" fill-rule="evenodd"/></g></svg>