<?xml version="1.0" ?><!DOCTYPE svg  PUBLIC '-//W3C//DTD SVG 1.1//EN'  'http://www.w3.org/Graphics/SVG/1.1/DTD/svg11.dtd'><svg enable-background="new 0 0 512 512" height="512px" id="Layer_1" version="1.1" viewBox="0 0 512 512" width="512px" xml:space="preserve" xmlns="http://www.w3.org/2000/svg" xmlns:xlink="http://www.w3.org/1999/xlink"><g><polygon clip-rule="evenodd" fill="#3CC7F4" fill-rule="evenodd" points="0,0 435.207,0 512,76.793 512,512 76.793,512 0,435.211     "/><polygon clip-rule="evenodd" fill="#69CEF2" fill-rule="evenodd" points="435.207,0 512,76.793 435.207,76.793  "/><polygon clip-rule="evenodd" fill="#289EC6" fill-rule="evenodd" points="435.207,76.793 512,153.584 512,76.793  "/><polygon clip-rule="evenodd" fill="#69CEF2" fill-rule="evenodd" points="76.793,512 0,435.211 76.793,435.211  "/><polygon clip-rule="evenodd" fill="#289EC6" fill-rule="evenodd" points="153.588,512 76.793,435.211 76.793,512  "/><path clip-rule="evenodd" d="M324.555,343.297c-22.98,21.168-51.098,36.883-82.082,45.199   c-7.559,2.121-15.27,3.625-23.131,4.836c-5.742,0.754-11.488,1.359-17.383,1.664h-22.07c-33.559-1.816-64.85-12.09-91.91-28.566   L233.551,512h104.457h27.813h127.438H512V222.518l-98.563-98.41c-5.137,14.963-15.266,27.662-28.266,36.125l-0.605,0.305h0.605   h0.754c14.059,0,27.063-4.08,38.094-11.186c-6.953,10.129-14.965,19.652-23.883,27.965c-3.777,3.627-7.715,6.953-11.793,10.129   l0.301,10.279C388.645,255.32,364.008,307.168,324.555,343.297L324.555,343.297z M125.164,148.594   c8.922,9.373,18.746,17.689,29.479,24.793l-47.467-47.619C112.467,133.934,118.518,141.488,125.164,148.594L125.164,148.594z    M139.98,286.156l12.848-0.758c-12.697-3.777-24.033-10.578-33.256-19.652L139.98,286.156z M170.818,344.656   c5.443-3.023,10.885-6.5,15.875-10.129c-18.748-1.66-35.678-9.82-48.375-22.367L170.818,344.656z" fill="#289EC6" fill-rule="evenodd"/><path clip-rule="evenodd" d="M277.391,131.213c-9.223,7.104-16.629,16.172-21.465,26.904   l-2.568,6.352c-1.363,4.232-2.422,8.463-3.025,12.848c-0.301,1.967-0.453,4.082-0.605,6.045l-0.148,3.781l0.301,6.047l1.207,8.162   h-0.301h-3.023h-1.963c-23.584-0.307-46.107-5.441-66.514-14.359l-11.793-5.896c-2.266-1.209-4.383-2.416-6.498-3.779   c-13.152-7.857-25.246-17.684-35.83-28.723c-6.646-7.105-12.697-14.66-17.988-22.826c-5.895,11.039-9.221,23.584-9.221,36.887   c0,4.986,0.455,9.977,1.361,14.662c0.453,2.115,0.908,4.082,1.361,5.895c3.93,14.365,11.639,27.061,22.221,36.891l5.143,4.525   l-6.656-1.504c-8.613-2.121-17.078-4.996-25.09-8.316c1.057,17.082,7.709,32.803,18.137,45.35   c9.979,11.789,23.281,20.859,38.396,25.242l-17.684,1.059l-14.814-0.754c11.033,26.758,36.43,46.258,66.363,48.824   c-27.664,19.957-61.83,31.902-98.715,31.902c27.061,16.477,58.352,26.75,91.91,28.566h22.07   c104.154-5.746,186.686-91.914,186.686-197.271l-0.301-10.279c4.078-3.176,8.016-6.502,11.793-10.129   c8.918-8.313,16.93-17.836,23.883-27.965c-11.031,7.105-24.035,11.186-38.094,11.186h-0.754h-0.605l0.449-0.305   c13.156-8.463,23.285-21.162,28.422-36.125c-10.277,5.291-21.313,9.371-32.801,12.545l-1.512,0.303l-8.465,1.965   c-12.547-13.152-30.086-21.615-49.582-21.918h-0.457h-0.906c-5.441,0-10.727,0.605-15.871,1.813   c-7.863,1.814-15.117,4.838-21.613,9.072L277.391,131.213z" fill="#FFFFFF" fill-rule="evenodd"/></g></svg>