<?xml version="1.0" ?><!DOCTYPE svg  PUBLIC '-//W3C//DTD SVG 1.1//EN'  'http://www.w3.org/Graphics/SVG/1.1/DTD/svg11.dtd'><svg enable-background="new 0 0 512 512" height="512px" id="Layer_1" version="1.1" viewBox="0 0 512 512" width="512px" xml:space="preserve" xmlns="http://www.w3.org/2000/svg" xmlns:xlink="http://www.w3.org/1999/xlink"><g><polygon clip-rule="evenodd" fill="#E6E6E5" fill-rule="evenodd" points="0,0 435.199,0 512,76.799 512,512 76.799,512 0,435.199     "/><polygon clip-rule="evenodd" fill="#F2F3F3" fill-rule="evenodd" points="435.199,0 512,76.799 435.199,76.799  "/><polygon clip-rule="evenodd" fill="#C9C9C9" fill-rule="evenodd" points="435.199,76.799 512,153.602 512,76.799  "/><polygon clip-rule="evenodd" fill="#F2F3F3" fill-rule="evenodd" points="76.799,512 0,435.199 76.799,435.199  "/><polygon clip-rule="evenodd" fill="#C9C9C9" fill-rule="evenodd" points="153.598,512 76.799,435.199 76.799,512  "/><path clip-rule="evenodd" d="M393.063,390.852c-2.414,6.055-5.637,11.289-9.875,15.32   c-3.824,3.422-8.457,6.051-14.313,7.461c-30.637,7.461-201.568,5.852-225.76,0c-6.244-1.613-11.084-4.438-14.914-8.266L234.629,512   H489.02H512v-94.945v-49.18v-4.438v-34.664v-36.895L344.695,124.373v37.088v34.471v4.635v14.516h-17.543v-9.072l-5.238,4.635   c-1.609,1.213-3.23,2.42-4.84,3.227c-1.609,1.01-3.426,1.613-5.441,2.221c-0.199,0-0.402,0-0.605,0   c-1.816,0.6-4.027,0.803-6.453,0.803c-4.836,0-8.66-1.813-11.484-5.037c-2.621-3.428-4.035-8.066-4.035-14.109v-3.629v-49.188   v-4.436l-10.074-10.275c0.398,0.604,1.004,1.207,1.402,1.809c2.02,2.625,3.43,5.445,4.438,8.672   c0.203,0.805,0.402,1.408,0.613,2.014c1.004,4.234,1.406,8.871,1.406,13.711v26.602c0,3.027,0,5.852-0.402,8.469   c-0.199,1.816-0.605,3.627-1.004,5.24c-1.016,4.234-2.625,7.66-5.051,10.686c-2.215,3.023-5.238,5.238-8.859,6.852   c-3.629,1.818-8.066,2.621-13.311,2.621c-5.238,0-9.875-0.803-13.504-2.621c-3.625-1.613-6.451-3.828-8.865-6.852   c-2.221-3.025-4.035-6.451-4.84-10.686c-1.01-4.234-1.615-8.666-1.615-13.709v-26.602c0-4.84,0.605-9.477,1.615-13.711   c0.404-1.814,0.805-3.424,1.615-5.039c0.805-2.018,2.01-3.83,3.225-5.646c2.414-3.021,5.24-5.24,8.865-6.85   c3.629-1.615,8.266-2.422,13.504-2.422c3.631,0,6.857,0.402,9.881,1.213l-30.641-30.643l-12.699,36.486l-12.096,34.672v50.596   h-20.359l12.9,12.9c37.295-1.008,83.453-1.008,117.918,0.203c21.379,0.803,38.102,2.012,45.758,4.029   c12.504,3.023,19.555,11.086,24.188,22.775c3.434,8.67,5.855,28.018,6.66,49.791C400.93,337.836,398.918,376.137,393.063,390.852   L393.063,390.852z M202.988,139.689l7.25-24.391l-21.967-21.971l14.307,46.361H202.988z M175.771,382.996v-103.41h17.941v-18.348   h-54.424v18.348h17.939v103.41H175.771z M245.314,382.996v-90.715h-16.73v71.156c-2.016,1.609-3.83,3.023-5.641,4.027   c-1.615,1.215-3.43,1.82-5.24,1.82c-1.814,0-3.23-0.605-4.234-1.609c-1.211-1.215-1.615-2.828-1.615-5.039v-70.355h-16.936v73.371   c0,6.051,1.215,10.684,3.635,14.121c2.621,3.223,6.045,5.035,10.48,5.035c2.416,0,4.635-0.406,6.25-0.809   c1.811-0.605,3.625-1.215,5.041-2.219c1.404-0.809,3.02-2.008,4.43-3.223l4.635-4.641v9.078H245.314z M275.145,364.449v-53.617   c1.621-1.414,3.23-2.418,4.641-3.434c1.207-0.602,2.418-1.004,3.422-1.211c0.605,0,1.012,0,1.41,0c1.215,0,2.223,0.207,3.23,0.609   s1.813,1.012,2.621,2.215c0.805,1.215,1.211,2.629,1.609,4.438c0.207,0.602,0.406,1.203,0.406,2.012   c0.199,1.41,0.199,3.23,0.199,5.445v33.672c0,3.016-0.199,5.434-0.605,7.25c-0.398,1.809-0.805,3.43-1.609,4.434   c-0.809,1.203-1.613,2.012-2.621,2.418s-2.016,0.605-3.23,0.605c-1.609,0-3.219-0.605-4.832-1.41   C278.375,367.066,276.766,365.855,275.145,364.449L275.145,364.449z M309.613,332.398v-16.531c0-8.266-1.609-14.512-4.633-18.742   c-3.023-4.438-7.258-6.453-12.496-6.453c-1.809,0-3.43,0.203-4.84,0.605c-1.406,0.402-2.824,1.004-4.23,1.816   c-1.211,0.809-2.621,1.813-3.836,3.012l-3.418,3.031l-1.016,1.008v-2.215v-36.691h-16.932v19.957v101.801h15.928v-9.48h0.398   c2.625,4.035,5.445,6.863,7.863,8.664c2.418,1.621,5.848,2.629,10.082,2.629c5.238,0,9.473-2.223,12.496-6.449   c3.023-4.234,4.633-10.684,4.633-18.949V332.398z M355.98,325.742h-18.547v-4.836c0-5.238,0.805-9.07,2.422-11.285   c1.609-2.422,3.824-3.434,6.855-3.434c3.023,0,5.238,1.012,6.848,3.434c1.617,2.215,2.422,6.047,2.422,11.285V325.742z    M346.711,290.672c-4.84,0-8.875,0.805-12.102,2.422c-3.219,1.613-6.047,3.82-8.059,6.848c-2.223,3.027-3.633,6.652-4.637,10.684   c-0.805,4.238-1.211,8.871-1.211,13.707v19.152v7.457c0,5.035,0.406,9.473,1.211,13.707c1.004,4.23,2.414,7.66,4.637,10.684   c2.012,3.027,4.84,5.234,8.059,7.059c3.227,1.609,7.262,2.418,12.102,2.418c4.832,0,8.664-0.809,11.887-2.418   c0.203,0,0.402-0.211,0.602-0.211c3.031-1.613,5.449-3.82,7.465-6.445c2.211-2.824,3.629-6.246,4.637-10.281   c1.004-3.828,1.41-8.262,1.609-13.098h-16.93v2.012c0,5.242-0.805,9.07-2.422,11.488c-1.609,2.219-3.824,3.43-6.848,3.43   c-0.207,0-0.207,0-0.406,0c-2.824-0.199-5.039-1.41-6.449-3.43c-0.813-1.207-1.418-2.816-1.816-5.035   c-0.406-1.816-0.605-3.832-0.605-6.453v-13.102h35.477v-16.934c0-4.836-0.605-9.469-1.41-13.707   c-0.805-4.031-2.422-7.656-4.438-10.684c-2.215-3.027-4.832-5.234-8.262-6.848C355.578,291.477,351.543,290.672,346.711,290.672   L346.711,290.672z M307.598,163.477v31.246c0,2.215,0.605,3.83,1.816,5.035c1.215,1.012,2.824,1.613,4.836,1.613   c2.02,0,3.836-0.602,5.648-1.813c2.016-1.006,4.027-2.418,6.25-4.031v-13.502v-4.639v-34.469l-18.551-18.545v34.672V163.477z    M268.492,186.455v-12.898v-20.561c0-5.242-1.004-9.072-2.824-11.289c-1.609-2.416-4.223-3.426-7.455-3.426   c-3.424,0-5.84,1.01-7.654,3.426c-1.814,2.217-2.619,6.047-2.619,11.289v33.459c0,5.242,0.805,9.072,2.619,11.293   c1.814,2.414,4.23,3.623,7.654,3.623c3.232,0,5.846-1.209,7.455-3.623C267.488,195.527,268.492,191.697,268.492,186.455   L268.492,186.455z" fill="#C9C9C9" fill-rule="evenodd"/><path d="M212.658,164.486l24.795-71.158h-20.76l-13.705,46.361h-0.41l-14.307-46.361h-20.764l24.791,71.158v50.596   h20.359V164.486z M268.492,186.455c0,5.242-1.004,9.072-2.824,11.293c-1.609,2.414-4.223,3.623-7.455,3.623   c-3.424,0-5.84-1.209-7.654-3.623c-1.814-2.221-2.619-6.051-2.619-11.293v-33.459c0-5.242,0.805-9.072,2.619-11.289   c1.814-2.416,4.23-3.426,7.654-3.426c3.232,0,5.846,1.01,7.455,3.426c1.82,2.217,2.824,6.047,2.824,11.289V186.455z    M229.389,183.027c0,5.043,0.605,9.475,1.615,13.709c0.805,4.234,2.619,7.66,4.84,10.686c2.414,3.023,5.24,5.238,8.865,6.852   c3.629,1.818,8.266,2.621,13.504,2.621c5.244,0,9.682-0.803,13.311-2.621c3.621-1.613,6.645-3.828,8.859-6.852   c2.426-3.025,4.035-6.451,5.051-10.686c1.004-4.234,1.406-8.666,1.406-13.709v-26.602c0-4.84-0.402-9.477-1.406-13.711   c-1.016-4.029-2.625-7.658-5.051-10.686c-2.215-3.021-5.238-5.24-8.859-6.85c-3.629-1.615-8.066-2.422-13.311-2.422   c-5.238,0-9.875,0.807-13.504,2.422c-3.625,1.609-6.451,3.828-8.865,6.85c-2.221,3.027-4.035,6.656-4.84,10.686   c-1.01,4.234-1.615,8.871-1.615,13.711V183.027z M326.148,124.373v71.154c-2.223,1.613-4.234,3.025-6.25,4.031   c-1.813,1.211-3.629,1.813-5.648,1.813c-2.012,0-3.621-0.602-4.836-1.613c-1.211-1.205-1.816-2.82-1.816-5.035v-70.35h-18.543   v73.375c0,6.043,1.414,10.682,4.035,14.109c2.824,3.225,6.648,5.037,11.484,5.037c2.625,0,5.039-0.402,7.059-0.803   c2.016-0.607,3.832-1.211,5.441-2.221c1.609-0.807,3.23-2.014,4.84-3.227c1.41-1.41,3.227-3.021,5.238-4.635v9.072h17.543v-90.709   H326.148z" fill="#0E0E0E"/><path clip-rule="evenodd" d="M211.854,292.281v70.355c0,2.211,0.404,3.824,1.615,5.039   c1.004,1.004,2.42,1.609,4.234,1.609c1.811,0,3.625-0.605,5.24-1.82c1.811-1.004,3.625-2.418,5.641-4.027v-71.156h16.73v90.715   h-15.926v-9.078l-4.635,4.641c-1.41,1.215-3.025,2.414-4.43,3.223c-1.416,1.004-3.23,1.613-5.041,2.219   c-1.615,0.402-3.834,0.809-6.25,0.809c-4.436,0-7.859-1.813-10.48-5.035c-2.42-3.438-3.635-8.07-3.635-14.121v-73.371H211.854z    M339.855,309.621c-1.617,2.215-2.422,6.047-2.422,11.285v4.836h18.547v-4.836c0-5.238-0.805-9.07-2.422-11.285   c-1.609-2.422-3.824-3.434-6.848-3.434C343.68,306.188,341.465,307.199,339.855,309.621L339.855,309.621z M275.145,310.832v53.617   c1.621,1.406,3.23,2.617,4.641,3.426c1.613,0.805,3.223,1.41,4.832,1.41c1.215,0,2.223-0.199,3.23-0.605s1.813-1.215,2.621-2.418   c0.805-1.004,1.211-2.625,1.609-4.434c0.406-1.816,0.605-4.234,0.605-7.25v-33.672c0-3.223-0.199-5.645-0.605-7.457   c-0.398-1.809-0.805-3.223-1.609-4.438c-0.809-1.203-1.613-1.813-2.621-2.215s-2.016-0.609-3.23-0.609   c-1.609,0-3.219,0.406-4.832,1.211C278.375,308.414,276.766,309.418,275.145,310.832L275.145,310.832z M175.771,279.586v103.41   h-18.543v-103.41h-17.939v-18.348h54.424v18.348H175.771z M258.213,382.996V261.238h16.932v38.906l4.434-4.039   c1.215-1.199,2.625-2.203,3.836-3.012c1.406-0.813,2.824-1.414,4.23-1.816c1.41-0.402,3.031-0.605,4.84-0.605   c5.238,0,9.473,2.016,12.496,6.453c3.023,4.23,4.633,10.477,4.633,18.742v43.543c0,8.266-1.609,14.715-4.633,18.949   c-3.023,4.227-7.258,6.449-12.496,6.449c-4.234,0-7.664-1.008-10.082-2.629c-2.418-1.801-5.238-4.629-7.863-8.664h-0.398v9.48   H258.213z M320.703,324.332c0-4.836,0.406-9.469,1.211-13.707c1.004-4.031,2.414-7.656,4.637-10.684   c2.012-3.027,4.84-5.234,8.059-6.848c3.227-1.617,7.262-2.422,12.102-2.422c4.832,0,8.867,0.805,12.09,2.422   c3.43,1.613,6.047,3.82,8.262,6.848c2.016,3.027,3.633,6.652,4.438,10.684c0.805,4.238,1.41,8.871,1.41,13.707v16.934h-35.477   v13.102c0,5.242,0.805,9.07,2.422,11.488c1.609,2.219,3.824,3.43,6.855,3.43c3.023,0,5.238-1.211,6.848-3.43   c1.617-2.418,2.422-6.246,2.422-11.488v-2.012h16.93c-0.199,4.836-0.605,9.27-1.609,13.098c-1.008,4.035-2.426,7.457-4.637,10.281   c-2.016,2.824-4.84,5.039-8.066,6.656c-3.223,1.609-7.055,2.418-11.887,2.418c-4.84,0-8.875-0.809-12.102-2.418   c-3.219-1.824-6.047-4.031-8.059-7.059c-2.223-3.023-3.633-6.453-4.637-10.684c-0.805-4.234-1.211-8.672-1.211-13.707V324.332z    M143.115,232.215c-12.498,3.023-19.553,11.086-24.188,22.775c-8.668,21.373-9.678,111.471,0,135.861   c4.635,11.695,11.689,19.758,24.188,22.781c24.191,5.852,195.123,7.461,225.76,0c12.504-3.023,19.555-11.086,24.188-22.781   c9.883-24.391,8.672-114.289,0-135.861c-4.633-11.689-11.684-19.752-24.188-22.775   C339.043,224.756,165.291,226.773,143.115,232.215L143.115,232.215z" fill="#C4202D" fill-rule="evenodd"/></g></svg>